<svg width="113" height="43" viewBox="0 0 113 43" fill="none" xmlns="http://www.w3.org/2000/svg">
<path d="M0.182129 20.3326V0.681061H18.2046V2.35672H2.32411V9.12354H17.4043V10.7564H2.32411V18.6641H18.44V20.3398H0.182129V20.3326Z" fill="#404040"/>
<path d="M34.1635 12.0114V20.3326H32.1941V12.0114L22.0413 0.681061H24.3872L33.1827 10.5211L41.9468 0.681061H44.3085L34.1556 12.0114H34.1635Z" fill="#404040"/>
<path d="M65.6969 20.3326L62.7232 15.1417H48.0432L45.0695 20.3326H42.9119L54.2259 0.681061H56.5405L67.8546 20.3326H65.6969V20.3326ZM55.3871 2.41377L49.0004 13.5159H61.766L55.395 2.41377H55.3871Z" fill="#404040"/>
<path d="M72.0916 20.3326V0.681061H74.0609V18.657H89.8629V20.3326H72.0916V20.3326Z" fill="#404040"/>
<path d="M3.49365 33.2144C3.89404 33.2144 4.29443 33.2559 4.69482 33.3389C5.1001 33.4219 5.47607 33.5366 5.82275 33.6831C5.75439 33.8394 5.68359 33.9932 5.61035 34.1445C5.53711 34.2959 5.45654 34.4448 5.36865 34.5913C5.24658 34.5425 5.10986 34.4937 4.9585 34.4448C4.81201 34.396 4.65576 34.3545 4.48975 34.3203C4.32861 34.2861 4.16016 34.2593 3.98438 34.2397C3.81348 34.2153 3.64502 34.2031 3.479 34.2031C3.29834 34.2031 3.12256 34.2227 2.95166 34.2617C2.78564 34.2959 2.63672 34.3545 2.50488 34.4375C2.37793 34.5205 2.27539 34.6304 2.19727 34.7671C2.11914 34.8989 2.08008 35.0649 2.08008 35.2651C2.08008 35.4702 2.12402 35.6436 2.21191 35.7852C2.2998 35.9219 2.41943 36.0366 2.5708 36.1294C2.72217 36.2222 2.89795 36.3003 3.09814 36.3638C3.30322 36.4272 3.52051 36.4858 3.75 36.5396C4.10645 36.6274 4.43848 36.7275 4.74609 36.8398C5.05371 36.9473 5.31982 37.0889 5.54443 37.2646C5.76904 37.4404 5.94482 37.6577 6.07178 37.9165C6.19873 38.1753 6.26221 38.4951 6.26221 38.876C6.26221 39.2764 6.18164 39.6206 6.02051 39.9087C5.86426 40.1968 5.64941 40.436 5.37598 40.6265C5.10742 40.812 4.79248 40.9487 4.43115 41.0366C4.06982 41.1294 3.68408 41.1758 3.27393 41.1758C3.05908 41.1758 2.83691 41.1611 2.60742 41.1318C2.38281 41.1074 2.1582 41.0684 1.93359 41.0146C1.71387 40.9658 1.49658 40.9048 1.28174 40.8315C1.06689 40.7583 0.864258 40.6777 0.673828 40.5898C0.742188 40.4336 0.812988 40.2822 0.88623 40.1357C0.964355 39.9844 1.04492 39.8354 1.12793 39.689C1.28906 39.7573 1.45996 39.8232 1.64062 39.8867C1.82129 39.9453 2.00684 39.9966 2.19727 40.0405C2.3877 40.0845 2.57568 40.1211 2.76123 40.1504C2.94678 40.1748 3.125 40.187 3.2959 40.187C3.51074 40.187 3.71826 40.1626 3.91846 40.1138C4.12354 40.0649 4.3042 39.9893 4.46045 39.8867C4.62158 39.7793 4.74854 39.6426 4.84131 39.4766C4.93896 39.3105 4.98779 39.1104 4.98779 38.876C4.98779 38.6562 4.94141 38.4756 4.84863 38.334C4.76074 38.1924 4.64111 38.0752 4.48975 37.9824C4.33838 37.8848 4.16016 37.8066 3.95508 37.748C3.75488 37.6846 3.54248 37.626 3.31787 37.5723C2.97607 37.4893 2.65137 37.394 2.34375 37.2866C2.04102 37.1792 1.7749 37.04 1.54541 36.8691C1.3208 36.6934 1.14014 36.4785 1.00342 36.2246C0.871582 35.9658 0.805664 35.646 0.805664 35.2651C0.805664 34.9087 0.878906 34.6011 1.02539 34.3423C1.17188 34.0835 1.36719 33.8711 1.61133 33.7051C1.86035 33.5391 2.146 33.417 2.46826 33.3389C2.79541 33.2559 3.13721 33.2144 3.49365 33.2144ZM9.28242 41V36.2905C9.28242 35.5386 9.26533 34.9722 9.23115 34.5913C9.21162 34.2935 9.14814 33.9297 9.04072 33.5L10.2419 33.229C10.3347 33.522 10.4006 33.8052 10.4396 34.0786C10.4592 34.1812 10.4836 34.4473 10.5129 34.877H10.6667C10.9157 34.3789 11.2282 33.9883 11.6042 33.7051C12.0095 33.3779 12.4709 33.2144 12.9885 33.2144C13.2814 33.2144 13.5646 33.2681 13.8381 33.3755C14.1115 33.478 14.341 33.6245 14.5266 33.8149C14.8049 34.0884 15.0026 34.4937 15.1198 35.0308H15.2077C15.5007 34.4644 15.8449 34.0298 16.2404 33.7271C16.6652 33.3853 17.1413 33.2144 17.6687 33.2144C18.3083 33.2144 18.799 33.3926 19.1408 33.749C19.4387 34.0469 19.6486 34.501 19.7707 35.1113C19.8586 35.5557 19.9025 36.1758 19.9025 36.9717V41H18.6428V36.6201C18.6428 36.2344 18.6208 35.917 18.5769 35.668C18.5085 35.2822 18.3864 34.9819 18.2106 34.7671C17.9909 34.5083 17.6833 34.3789 17.2878 34.3789C16.8386 34.3789 16.4235 34.5938 16.0427 35.0234C15.8132 35.2822 15.5397 35.6826 15.2224 36.2246C15.2321 36.3076 15.237 36.4297 15.237 36.5908V41H13.9772V36.6201C13.9772 36 13.9162 35.5239 13.7941 35.1919C13.5891 34.6499 13.2009 34.3789 12.6296 34.3789C12.1901 34.3789 11.7727 34.5986 11.3771 35.0381C11.1477 35.292 10.8693 35.7144 10.5422 36.3052V41H9.28242ZM23.538 34.7305L23.2157 33.7051C24.036 33.3779 24.8954 33.2144 25.7938 33.2144C26.58 33.2144 27.1806 33.3462 27.5956 33.6099C28.0692 33.9126 28.3061 34.4277 28.3061 35.1553V38.1509C28.3061 38.5513 28.3109 38.9614 28.3207 39.3813C28.3256 39.6304 28.35 39.8892 28.3939 40.1577C28.433 40.4116 28.4843 40.6533 28.5478 40.8828L27.3466 41.1465C27.2343 40.8193 27.1635 40.4531 27.1342 40.0479L26.9877 40.0332C26.3822 40.7949 25.6107 41.1758 24.6732 41.1758C23.9896 41.1758 23.4403 40.9878 23.0253 40.6118C22.6103 40.231 22.4027 39.6963 22.4027 39.0078C22.4027 38.4951 22.515 38.0752 22.7396 37.748C22.9691 37.4209 23.2914 37.145 23.7064 36.9204C24.3607 36.564 25.2763 36.3857 26.453 36.3857C26.6093 36.3857 26.8192 36.3906 27.0829 36.4004V35.2871C27.0829 34.9355 26.9755 34.6816 26.7606 34.5254C26.5458 34.3691 26.2089 34.291 25.7499 34.291C25.081 34.291 24.3437 34.4375 23.538 34.7305ZM27.0829 38.8613V37.3232C26.9511 37.3135 26.7582 37.3086 26.5043 37.3086C26.0746 37.3086 25.6791 37.3452 25.3178 37.4185C24.7807 37.5259 24.3632 37.6968 24.0653 37.9312C23.7724 38.1606 23.6259 38.4927 23.6259 38.9272C23.6259 39.7085 24.0507 40.0991 24.9003 40.0991C25.3397 40.0991 25.7499 39.9819 26.1308 39.7476C26.4433 39.5522 26.7606 39.2568 27.0829 38.8613ZM33.1427 35.1479C33.294 34.8452 33.4552 34.5718 33.6261 34.3276C33.8019 34.0835 33.9947 33.876 34.2047 33.7051C34.3951 33.5391 34.6051 33.417 34.8346 33.3389C35.0641 33.2559 35.3253 33.2144 35.6183 33.2144C35.7159 33.2144 35.8282 33.2192 35.9552 33.229C36.087 33.2388 36.2115 33.2559 36.3287 33.2803C36.3092 33.5244 36.2848 33.7539 36.2555 33.9688C36.2311 34.1836 36.1969 34.4009 36.1529 34.6206C35.9088 34.5767 35.6842 34.5449 35.4791 34.5254C35.2789 34.5059 35.0885 34.5107 34.9078 34.54C34.693 34.5791 34.505 34.6523 34.3438 34.7598C34.1876 34.8623 34.0411 35.0015 33.9044 35.1772C33.7726 35.3481 33.6432 35.5557 33.5162 35.7998C33.3893 36.0391 33.2501 36.3149 33.0987 36.6274V41H31.839V36.3052C31.839 35.9976 31.8341 35.7266 31.8243 35.4922C31.8194 35.2578 31.8048 35.0356 31.7804 34.8257C31.7608 34.6108 31.7291 34.4009 31.6852 34.1958C31.6412 33.9858 31.5826 33.7539 31.5094 33.5C31.7145 33.4463 31.9146 33.3975 32.11 33.3535C32.3102 33.3096 32.5128 33.2681 32.7179 33.229C32.7862 33.4243 32.8399 33.5977 32.879 33.749C32.9229 33.9004 32.9571 34.0493 32.9815 34.1958C33.006 34.3374 33.023 34.4839 33.0328 34.6353C33.0475 34.7817 33.0621 34.9526 33.0768 35.1479H33.1427ZM39.6053 31.6396H40.865V33.3828H43.4285V34.4448H40.865V38.8174C40.865 39.1104 40.8724 39.335 40.887 39.4912C40.9065 39.6426 40.9505 39.7622 41.0188 39.8501C41.1458 40.0259 41.4021 40.1138 41.7879 40.1138C42.0027 40.1138 42.2103 40.0918 42.4104 40.0479C42.6155 40.0039 42.8035 39.9551 42.9744 39.9014C43.1111 40.1992 43.2356 40.5264 43.3479 40.8828C42.7718 41.0781 42.1907 41.1758 41.6048 41.1758C41.18 41.1758 40.8382 41.127 40.5794 41.0293C40.3255 40.9365 40.1253 40.7827 39.9788 40.5679C39.8274 40.3433 39.7273 40.0747 39.6785 39.7622C39.6297 39.4497 39.6053 39.0176 39.6053 38.4658V34.4448H38.5066V33.3828H39.6053V31.6396ZM53.8562 33.2144C54.2565 33.2144 54.6569 33.2559 55.0573 33.3389C55.4626 33.4219 55.8386 33.5366 56.1853 33.6831C56.1169 33.8394 56.0461 33.9932 55.9729 34.1445C55.8996 34.2959 55.819 34.4448 55.7312 34.5913C55.6091 34.5425 55.4724 34.4937 55.321 34.4448C55.1745 34.396 55.0183 34.3545 54.8522 34.3203C54.6911 34.2861 54.5227 34.2593 54.3469 34.2397C54.176 34.2153 54.0075 34.2031 53.8415 34.2031C53.6608 34.2031 53.4851 34.2227 53.3142 34.2617C53.1481 34.2959 52.9992 34.3545 52.8674 34.4375C52.7404 34.5205 52.6379 34.6304 52.5598 34.7671C52.4816 34.8989 52.4426 35.0649 52.4426 35.2651C52.4426 35.4702 52.4865 35.6436 52.5744 35.7852C52.6623 35.9219 52.7819 36.0366 52.9333 36.1294C53.0847 36.2222 53.2604 36.3003 53.4606 36.3638C53.6657 36.4272 53.883 36.4858 54.1125 36.5396C54.4689 36.6274 54.801 36.7275 55.1086 36.8398C55.4162 36.9473 55.6823 37.0889 55.9069 37.2646C56.1315 37.4404 56.3073 37.6577 56.4343 37.9165C56.5612 38.1753 56.6247 38.4951 56.6247 38.876C56.6247 39.2764 56.5441 39.6206 56.383 39.9087C56.2268 40.1968 56.0119 40.436 55.7385 40.6265C55.4699 40.812 55.155 40.9487 54.7937 41.0366C54.4323 41.1294 54.0466 41.1758 53.6364 41.1758C53.4216 41.1758 53.1994 41.1611 52.9699 41.1318C52.7453 41.1074 52.5207 41.0684 52.2961 41.0146C52.0764 40.9658 51.8591 40.9048 51.6442 40.8315C51.4294 40.7583 51.2268 40.6777 51.0363 40.5898C51.1047 40.4336 51.1755 40.2822 51.2487 40.1357C51.3269 39.9844 51.4074 39.8354 51.4904 39.689C51.6516 39.7573 51.8225 39.8232 52.0031 39.8867C52.1838 39.9453 52.3693 39.9966 52.5598 40.0405C52.7502 40.0845 52.9382 40.1211 53.1237 40.1504C53.3093 40.1748 53.4875 40.187 53.6584 40.187C53.8732 40.187 54.0808 40.1626 54.281 40.1138C54.486 40.0649 54.6667 39.9893 54.8229 39.8867C54.9841 39.7793 55.111 39.6426 55.2038 39.4766C55.3015 39.3105 55.3503 39.1104 55.3503 38.876C55.3503 38.6562 55.3039 38.4756 55.2111 38.334C55.1232 38.1924 55.0036 38.0752 54.8522 37.9824C54.7009 37.8848 54.5227 37.8066 54.3176 37.748C54.1174 37.6846 53.905 37.626 53.6804 37.5723C53.3386 37.4893 53.0139 37.394 52.7062 37.2866C52.4035 37.1792 52.1374 37.04 51.9079 36.8691C51.6833 36.6934 51.5026 36.4785 51.3659 36.2246C51.2341 35.9658 51.1682 35.646 51.1682 35.2651C51.1682 34.9087 51.2414 34.6011 51.3879 34.3423C51.5344 34.0835 51.7297 33.8711 51.9738 33.7051C52.2229 33.5391 52.5085 33.417 52.8308 33.3389C53.1579 33.2559 53.4997 33.2144 53.8562 33.2144ZM62.4794 33.2144C62.7187 33.2144 62.9677 33.2339 63.2265 33.2729C63.4853 33.3071 63.7392 33.3755 63.9882 33.478C64.2372 33.5854 64.4716 33.7319 64.6913 33.9175C64.9159 34.0981 65.1137 34.335 65.2846 34.6279C65.4555 34.9258 65.5897 35.2847 65.6874 35.7046C65.7851 36.1196 65.8339 36.6152 65.8339 37.1914C65.8339 37.7676 65.7851 38.2656 65.6874 38.6855C65.5897 39.1006 65.4555 39.4546 65.2846 39.7476C65.1137 40.0454 64.9159 40.2871 64.6913 40.4727C64.4716 40.6582 64.2372 40.8022 63.9882 40.9048C63.7392 41.0122 63.4853 41.083 63.2265 41.1172C62.9677 41.1562 62.7187 41.1758 62.4794 41.1758C62.245 41.1758 61.9984 41.1562 61.7396 41.1172C61.4857 41.083 61.2343 41.0122 60.9853 40.9048C60.7362 40.8022 60.5019 40.6582 60.2821 40.4727C60.0624 40.2871 59.8671 40.0454 59.6962 39.7476C59.5253 39.4546 59.391 39.1006 59.2934 38.6855C59.1957 38.2656 59.1469 37.7676 59.1469 37.1914C59.1469 36.6152 59.1957 36.1196 59.2934 35.7046C59.391 35.2847 59.5253 34.9258 59.6962 34.6279C59.8671 34.335 60.0624 34.0981 60.2821 33.9175C60.5019 33.7319 60.7362 33.5854 60.9853 33.478C61.2343 33.3755 61.4857 33.3071 61.7396 33.2729C61.9936 33.2339 62.2401 33.2144 62.4794 33.2144ZM62.4794 34.2471C62.2011 34.2471 61.9374 34.291 61.6884 34.3789C61.4442 34.4668 61.2294 34.6206 61.0438 34.8403C60.8534 35.0649 60.702 35.3652 60.5897 35.7412C60.4774 36.1172 60.4213 36.6006 60.4213 37.1914C60.4213 37.7773 60.4774 38.2607 60.5897 38.6416C60.702 39.0176 60.8534 39.3154 61.0438 39.5352C61.2294 39.7598 61.4442 39.916 61.6884 40.0039C61.9374 40.0869 62.2011 40.1284 62.4794 40.1284C62.7626 40.1284 63.0287 40.0869 63.2777 40.0039C63.5316 39.916 63.7538 39.7598 63.9442 39.5352C64.1347 39.3154 64.2836 39.0176 64.391 38.6416C64.5033 38.2607 64.5595 37.7773 64.5595 37.1914C64.5595 36.6006 64.5033 36.1172 64.391 35.7412C64.2836 35.3652 64.1347 35.0649 63.9442 34.8403C63.7538 34.6206 63.5316 34.4668 63.2777 34.3789C63.0287 34.291 62.7626 34.2471 62.4794 34.2471ZM69.9088 38.041C69.9088 38.4414 69.9137 38.7783 69.9234 39.0518C69.9332 39.3203 69.9454 39.5571 69.9601 39.7622C69.9747 39.9673 69.9967 40.1528 70.026 40.3188C70.0602 40.4849 70.1017 40.668 70.1505 40.8682C69.9454 40.9219 69.7403 40.9707 69.5353 41.0146C69.3302 41.0635 69.1251 41.105 68.92 41.1392C68.8224 40.8218 68.7516 40.5312 68.7076 40.2676C68.6686 40.0039 68.649 39.7451 68.649 39.4912V30.4678H69.9088V38.041ZM79.6893 40.8682L78.4734 41.1392C78.3807 40.8462 78.3147 40.563 78.2757 40.2896C78.2561 40.1626 78.2317 39.9038 78.2024 39.5132H78.0486C77.7801 40.0063 77.448 40.3994 77.0525 40.6924C76.618 41.0146 76.159 41.1758 75.6756 41.1758C74.948 41.1758 74.3938 41 74.013 40.6484C73.6858 40.3506 73.4588 39.894 73.3318 39.2788C73.2488 38.8589 73.2073 38.2339 73.2073 37.4038V33.3828H74.4671V37.7554C74.4671 38.4829 74.5379 39.0029 74.6795 39.3154C74.8895 39.7793 75.3118 40.0112 75.9466 40.0112C76.3958 40.0112 76.8353 39.7964 77.2649 39.3667C77.553 39.0786 77.8606 38.6562 78.1878 38.0996V33.3828H79.4476V38.085C79.4476 38.7344 79.4646 39.2983 79.4988 39.7769C79.5184 40.0747 79.5818 40.4385 79.6893 40.8682ZM83.5957 31.6396H84.8555V33.3828H87.4189V34.4448H84.8555V38.8174C84.8555 39.1104 84.8628 39.335 84.8774 39.4912C84.897 39.6426 84.9409 39.7622 85.0093 39.8501C85.1362 40.0259 85.3926 40.1138 85.7783 40.1138C85.9932 40.1138 86.2007 40.0918 86.4009 40.0479C86.606 40.0039 86.7939 39.9551 86.9648 39.9014C87.1016 40.1992 87.2261 40.5264 87.3384 40.8828C86.7622 41.0781 86.1812 41.1758 85.5952 41.1758C85.1704 41.1758 84.8286 41.127 84.5698 41.0293C84.3159 40.9365 84.1157 40.7827 83.9692 40.5679C83.8179 40.3433 83.7178 40.0747 83.6689 39.7622C83.6201 39.4497 83.5957 39.0176 83.5957 38.4658V34.4448H82.4971V33.3828H83.5957V31.6396ZM91.0251 30.4312C91.2497 30.4312 91.445 30.5093 91.611 30.6655C91.7722 30.8364 91.8527 31.0366 91.8527 31.2661C91.8527 31.5005 91.7722 31.6982 91.611 31.8594C91.445 32.0254 91.2497 32.1084 91.0251 32.1084C90.7907 32.1084 90.5905 32.0254 90.4245 31.8594C90.2585 31.7031 90.1755 31.5054 90.1755 31.2661C90.1755 31.0317 90.2585 30.8315 90.4245 30.6655C90.5905 30.5093 90.7907 30.4312 91.0251 30.4312ZM90.3806 33.3828H91.6403V41H90.3806V33.3828ZM98.1542 33.2144C98.3935 33.2144 98.6425 33.2339 98.9013 33.2729C99.1601 33.3071 99.414 33.3755 99.663 33.478C99.912 33.5854 100.146 33.7319 100.366 33.9175C100.591 34.0981 100.788 34.335 100.959 34.6279C101.13 34.9258 101.265 35.2847 101.362 35.7046C101.46 36.1196 101.509 36.6152 101.509 37.1914C101.509 37.7676 101.46 38.2656 101.362 38.6855C101.265 39.1006 101.13 39.4546 100.959 39.7476C100.788 40.0454 100.591 40.2871 100.366 40.4727C100.146 40.6582 99.912 40.8022 99.663 40.9048C99.414 41.0122 99.1601 41.083 98.9013 41.1172C98.6425 41.1562 98.3935 41.1758 98.1542 41.1758C97.9198 41.1758 97.6732 41.1562 97.4145 41.1172C97.1605 41.083 96.9091 41.0122 96.6601 40.9048C96.411 40.8022 96.1767 40.6582 95.9569 40.4727C95.7372 40.2871 95.5419 40.0454 95.371 39.7476C95.2001 39.4546 95.0658 39.1006 94.9682 38.6855C94.8705 38.2656 94.8217 37.7676 94.8217 37.1914C94.8217 36.6152 94.8705 36.1196 94.9682 35.7046C95.0658 35.2847 95.2001 34.9258 95.371 34.6279C95.5419 34.335 95.7372 34.0981 95.9569 33.9175C96.1767 33.7319 96.411 33.5854 96.6601 33.478C96.9091 33.3755 97.1605 33.3071 97.4145 33.2729C97.6684 33.2339 97.9149 33.2144 98.1542 33.2144ZM98.1542 34.2471C97.8759 34.2471 97.6122 34.291 97.3632 34.3789C97.119 34.4668 96.9042 34.6206 96.7187 34.8403C96.5282 35.0649 96.3769 35.3652 96.2645 35.7412C96.1522 36.1172 96.0961 36.6006 96.0961 37.1914C96.0961 37.7773 96.1522 38.2607 96.2645 38.6416C96.3769 39.0176 96.5282 39.3154 96.7187 39.5352C96.9042 39.7598 97.119 39.916 97.3632 40.0039C97.6122 40.0869 97.8759 40.1284 98.1542 40.1284C98.4374 40.1284 98.7035 40.0869 98.9525 40.0039C99.2064 39.916 99.4286 39.7598 99.619 39.5352C99.8095 39.3154 99.9584 39.0176 100.066 38.6416C100.178 38.2607 100.234 37.7773 100.234 37.1914C100.234 36.6006 100.178 36.1172 100.066 35.7412C99.9584 35.3652 99.8095 35.0649 99.619 34.8403C99.4286 34.6206 99.2064 34.4668 98.9525 34.3789C98.7035 34.291 98.4374 34.2471 98.1542 34.2471ZM104.287 33.5146L105.503 33.2437C105.596 33.5366 105.662 33.8198 105.701 34.0933C105.72 34.2251 105.745 34.4863 105.774 34.877H105.928C106.196 34.3838 106.528 33.9907 106.924 33.6978C107.358 33.3755 107.817 33.2144 108.301 33.2144C109.028 33.2144 109.583 33.3901 109.963 33.7417C110.291 34.0396 110.518 34.4961 110.645 35.1113C110.728 35.5312 110.769 36.1562 110.769 36.9863V41H109.509V36.6348C109.509 35.9072 109.439 35.3872 109.297 35.0747C109.087 34.6108 108.665 34.3789 108.03 34.3789C107.581 34.3789 107.141 34.5938 106.712 35.0234C106.423 35.3115 106.116 35.7339 105.789 36.2905V41H104.529V36.3125C104.529 35.6533 104.512 35.0845 104.478 34.606C104.458 34.3081 104.395 33.9443 104.287 33.5146Z" fill="#404040"/>
</svg>
