<svg width="68" height="63" viewBox="0 0 68 63" fill="none" xmlns="http://www.w3.org/2000/svg">
<path d="M5.91202 15.7616L10.1931 19.2874L9.11011 25.4328C9.09737 25.5025 9.04004 25.5548 8.96359 25.5606L7.65759 25.6942L1.11487 19.7346L0 20.7511L45.1938 61.957L46.1494 61.0857L44.4102 59.5L44.3338 57.5657C44.3338 57.5657 44.3465 57.5367 44.3592 57.5367L50.5516 56.526L53.2655 54.1968L54.8646 55.6547L63.07 48.1617L16.7231 5.90448L5.91202 15.7616ZM14.6144 29.3536C14.4743 29.0748 15.2005 23.6728 15.621 23.5509C16.0414 23.4289 16.8951 23.7019 16.8951 23.7019L23.8328 30.0274C23.8328 30.0274 24.2724 31.1891 23.9985 31.4389C23.7245 31.6886 18.233 32.5425 17.9399 32.3857C17.6532 32.223 14.7546 29.6266 14.6144 29.3536ZM45.7098 50.1076C46.1494 50.5083 45.8564 51.3041 45.5633 51.5713C45.2703 51.8385 39.9189 52.7969 39.6067 52.5181L36.3831 49.579C36.2366 49.4454 36.9629 43.7356 37.2559 43.4684C37.6955 43.0676 38.4218 43.4684 38.4218 43.4684L45.7035 50.1076H45.7098ZM32.8729 37.9735C33.013 38.2581 32.1402 43.8343 31.7006 43.9679C31.2611 44.1015 30.3883 43.8343 30.3883 43.8343L23.5334 37.5843C23.5334 37.5843 22.96 36.2658 23.2531 35.9986C23.5461 35.7314 29.2224 34.7497 29.5155 34.9066C29.8086 35.0634 32.7327 37.6831 32.8729 37.9677V37.9735Z" fill="#F9C900"/>
<path d="M25.8617 5.84674L28.5178 10.4818L25.1913 15.8797C25.1534 15.9375 25.0775 15.9721 25.0079 15.9548L23.7431 15.6658L19.898 8.04867L18.4751 8.64972L45.0427 61.3052L46.2632 60.7909L45.2387 58.7623L45.8964 56.9303C45.8964 56.9303 45.9154 56.9072 45.9344 56.9072L52.0814 57.907L55.4838 56.5893L56.4261 58.4502L66.8925 54.0348L39.6419 0.0385132L25.8617 5.84674V5.84674ZM28.8466 21.2718C28.8213 20.9655 31.5344 16.1513 31.9707 16.1744C32.4071 16.1975 33.1028 16.7177 33.1028 16.7177L37.1818 24.803C37.1818 24.803 37.1565 26.0224 36.8024 26.1727C36.4482 26.3229 31.0158 25.3924 30.8071 25.1555C30.5984 24.9128 28.8783 21.5839 28.853 21.2776L28.8466 21.2718ZM49.9881 50.4054C50.2474 50.914 49.6719 51.567 49.2988 51.7231C48.9257 51.8791 43.5755 51.0989 43.3984 50.7348L41.5075 46.984C41.419 46.8164 44.2522 41.7133 44.6253 41.5572C45.1818 41.3203 45.713 41.9213 45.713 41.9213L49.9945 50.4054H49.9881ZM42.6079 35.0497C42.6332 35.3618 39.7178 40.2916 39.2561 40.28C38.7945 40.2684 38.0862 39.7425 38.0862 39.7425L34.0577 31.7555C34.0577 31.7555 34.0198 30.3453 34.3929 30.1893C34.766 30.0333 40.4198 30.8944 40.6348 31.1371C40.8498 31.3798 42.5889 34.7434 42.6079 35.0497V35.0497Z" fill="#A2A7A5"/>
<path d="M52.5091 2.92978L52.7971 8.17852L47.3561 11.8207C47.2935 11.8613 47.2121 11.8613 47.1558 11.8207L46.1477 11.0726V2.6456H44.595V60.8283H45.9223V58.5896L47.3436 57.1744C47.3436 57.1744 47.3749 57.1628 47.3874 57.1744L52.459 60.4455L56.1155 60.5499V62.6088H67.5295V2.92978H52.5028H52.5091ZM48.1951 18.1308C48.3078 17.8408 52.9348 14.5002 53.3167 14.6858C53.6987 14.8714 54.0869 15.6137 54.0869 15.6137V24.5453C54.0869 24.5453 53.5108 25.6472 53.1226 25.6472C52.7345 25.6472 48.2703 22.7126 48.1951 22.4168C48.1137 22.1152 48.0824 18.4208 48.1951 18.1308V18.1308ZM53.9867 52.8015C53.9867 53.364 53.179 53.741 52.772 53.741C52.365 53.741 47.9134 50.9746 47.9134 50.5744V46.4276C47.9134 46.242 52.772 42.6752 53.179 42.6752C53.7863 42.6752 53.9867 43.4233 53.9867 43.4233V52.8015V52.8015ZM54.3185 35.9707C54.1996 36.2607 49.3409 39.6361 48.9339 39.4505C48.527 39.2649 48.1263 38.511 48.1263 38.511V29.6838C48.1263 29.6838 48.7336 28.3847 49.1406 28.3847C49.5475 28.3847 54.2371 31.3425 54.3248 31.6441C54.4062 31.9457 54.4437 35.6807 54.3248 35.9707H54.3185Z" fill="#1A1A1A"/>
</svg>
