<svg width="18" height="12" viewBox="0 0 18 12" fill="none" xmlns="http://www.w3.org/2000/svg">
<g clip-path="url(#clip0_306_506)">
<path d="M16.7947 5.20851L11.8222 0.364595C11.6884 0.240108 11.5097 0.171399 11.3244 0.173175C11.139 0.174951 10.9618 0.247071 10.8305 0.374097C10.6993 0.501124 10.6245 0.672962 10.6222 0.852828C10.6199 1.03269 10.6902 1.2063 10.8181 1.33647L14.5555 4.9765H0.711098C0.614489 4.97075 0.517691 4.98426 0.426663 5.01619C0.335635 5.04812 0.252305 5.09779 0.181802 5.16215C0.111299 5.22651 0.0551157 5.30419 0.0167118 5.39041C-0.0216921 5.47664 -0.0415039 5.56958 -0.0415039 5.66352C-0.0415039 5.75745 -0.0216921 5.85039 0.0167118 5.93662C0.0551157 6.02285 0.111299 6.10053 0.181802 6.16489C0.252305 6.22925 0.335635 6.27892 0.426663 6.31085C0.517691 6.34277 0.614489 6.35628 0.711098 6.35053H14.6113L10.8208 9.98798C10.7487 10.0502 10.6904 10.126 10.6495 10.2109C10.6087 10.2957 10.5861 10.3877 10.5831 10.4813C10.5801 10.5749 10.5969 10.6681 10.6323 10.7552C10.6677 10.8423 10.7211 10.9214 10.7892 10.9878C10.8572 11.0542 10.9385 11.1064 11.028 11.1413C11.1176 11.1761 11.2135 11.1929 11.31 11.1905C11.4064 11.1881 11.5014 11.1667 11.589 11.1275C11.6766 11.0882 11.7551 11.0321 11.8195 10.9624L16.792 6.18297C16.8581 6.11903 16.9104 6.04309 16.9462 5.95949C16.9819 5.87588 17.0003 5.78626 17.0003 5.69574C17.0003 5.60523 16.9819 5.5156 16.9462 5.432C16.9104 5.34839 16.8581 5.27245 16.792 5.20851H16.7947Z" fill="white"/>
</g>
<defs>
<clipPath id="clip0_306_506">
<rect width="17" height="11" fill="white" transform="translate(0.00195312 0.163513)"/>
</clipPath>
</defs>
</svg>
