<svg width="18" height="12" viewBox="0 0 18 12" fill="none" xmlns="http://www.w3.org/2000/svg">
<g clip-path="url(#clip0_306_505)">
<path d="M0.209216 6.11851L5.18172 10.9624C5.31551 11.0869 5.4942 11.1556 5.67953 11.1539C5.86487 11.1521 6.04213 11.08 6.17336 10.9529C6.30459 10.8259 6.37937 10.6541 6.38169 10.4742C6.38402 10.2943 6.31369 10.1207 6.18578 9.99055L2.44843 6.35052L16.2928 6.35053C16.3894 6.35627 16.4862 6.34277 16.5772 6.31084C16.6683 6.27891 16.7516 6.22924 16.8221 6.16488C16.8926 6.10052 16.9488 6.02284 16.9872 5.93661C17.0256 5.85039 17.0454 5.75744 17.0454 5.66351C17.0454 5.56957 17.0256 5.47663 16.9872 5.39041C16.9488 5.30418 16.8926 5.2265 16.8221 5.16214C16.7516 5.09778 16.6683 5.04811 16.5772 5.01618C16.4862 4.98425 16.3894 4.97075 16.2928 4.97649L2.39265 4.97649L6.18312 1.33904C6.25523 1.27683 6.31351 1.20099 6.35438 1.11617C6.39525 1.03135 6.41786 0.939322 6.42082 0.845728C6.42378 0.752133 6.40703 0.658936 6.3716 0.571839C6.33617 0.484743 6.2828 0.405579 6.21476 0.33919C6.14671 0.272802 6.06543 0.220587 5.97587 0.185739C5.88632 0.15089 5.79038 0.134142 5.69393 0.136519C5.59748 0.138897 5.50254 0.16035 5.41492 0.199564C5.32731 0.238779 5.24886 0.294931 5.18437 0.364586L0.211873 5.14406C0.145855 5.20799 0.0934778 5.28393 0.0577417 5.36754C0.0220037 5.45114 0.00360919 5.54077 0.00360919 5.63128C0.00360918 5.7218 0.0220036 5.81142 0.0577416 5.89503C0.0934777 5.97863 0.145855 6.05458 0.211873 6.11851L0.209216 6.11851Z" fill="white"/>
</g>
<defs>
<clipPath id="clip0_306_505">
<rect width="17" height="11" fill="white" transform="translate(17.002 11.1635) rotate(-180)"/>
</clipPath>
</defs>
</svg>
